<svg xmlns="http://www.w3.org/2000/svg" xmlns:xlink="http://www.w3.org/1999/xlink" width="149" height="134" viewBox="0 0 149 134">
  <defs>
    <clipPath id="clip-medal">
      <rect width="149" height="134"/>
    </clipPath>
  </defs>
  <g id="medal" clip-path="url(#clip-medal)">
    <g id="award" transform="translate(-200.411 1283.964)">
      <path id="Path_38" data-name="Path 38" d="M249.871-1279.824c1.483,5.174,7.963,26.584,10.036,33.105a100.357,100.357,0,0,0,3.5,9.756c.238.446.249.508.114.508a4.8,4.8,0,0,0-1.6,1.1c-.622.726-.84,1.472-1.255,4.137-.311,2-.912,2.748-3.256,3.992a39.471,39.471,0,0,0-11.55,8.906,38.6,38.6,0,0,0-4.168,45.526,39.258,39.258,0,0,0,16.941,15.251,39.5,39.5,0,0,0,13.116,3.515,49.622,49.622,0,0,0,7.009-.052,38.578,38.578,0,0,0,26.48-14.277,38.675,38.675,0,0,0,8.212-19.471,53.943,53.943,0,0,0,0-9.331,38.673,38.673,0,0,0-10.793-22.385,38.183,38.183,0,0,0-10.275-7.579c-2.986-1.576-3.38-2.074-3.847-4.842-.135-.84-.3-1.711-.363-1.949a3.939,3.939,0,0,0-1.545-2.229c-.176-.073-.311-.166-.311-.2s.218-.653.477-1.369c.954-2.6,2.011-6.376,4.5-16.133,1.846-7.206,6.532-25.91,6.532-26.055,0-.073-3.11-.1-9.352-.1H279.12l-2.167,8.637c-1.192,4.738-2.2,8.657-2.229,8.7s-1.234-3.836-2.644-8.626L269.5-1280h-9.839C250.338-1280,249.82-1279.99,249.871-1279.824Zm15.2,46.117a1.584,1.584,0,0,0,.415.467c.228.124,8.688.135,14.971.031l4.127-.062.311-.259c.29-.249.3-.249.446-.062a2.325,2.325,0,0,1-.726,2.841c-.529.259-1.638.249-3.473-.042a34.422,34.422,0,0,0-6.345-.477,35.319,35.319,0,0,0-7.227.632c-2.354.425-3.256.176-3.691-1.037a2.528,2.528,0,0,1-.021-1.638,2.5,2.5,0,0,1,.912-.757C264.812-1234.069,264.947-1233.9,265.071-1233.707Z"/>
    </g>
  </g>
</svg>
